$MeshFormat
4.1 0 8
$EndMeshFormat
$Entities
10 10 1 0
1 -31.5818843841553 24.7022037506104 0 0 
2 -26.48978996276858 7.421594619751001 0 0 
3 -6.500625133514397 0.758540332317402 0 0 
4 7.6922302246093 8.342504501342802 0 0 
5 14.68030834198 -4.062694549560497 0 0 
6 27.7355556488037 0.8668836951256012 0 0 
7 28.2772674560547 23.23957633972173 0 0 
8 -6.717305660247799 21.39775657653813 0 0 
9 -22.26443481445315 30.3360042572022 0 0 
10 -31.74439620971682 24.81054687500005 0 0 
1 -31.5818844841553 7.42159451975105 -1e-07 -26.48978986276859 24.7022038506104 1e-07 0 2 1 -2 
2 -26.48979006276858 0.7585402323174075 -1e-07 -6.500625033514446 7.421594719751027 1e-07 0 2 2 -3 
3 -6.500625233514429 0.7585402323174022 -1e-07 7.692230324609306 8.342504601342798 1e-07 0 2 3 -4 
4 7.69223012460935 -4.062694649560525 -1e-07 14.68030844197997 8.342504601342823 1e-07 0 2 4 -5 
5 14.68030824197996 -4.062694649560497 -1e-07 27.73555574880364 0.8668837951256119 1e-07 0 2 5 -6 
6 27.73555554880368 0.8668835951256302 -1e-07 28.27726755605466 23.23957643972172 1e-07 0 2 6 -7 
7 -6.717305760247864 21.39775647653813 -1e-07 28.27726755605466 23.23957643972173 1e-07 0 2 7 -8 
8 -22.26443491445316 21.39775647653813 -1e-07 -6.717305560247827 30.33600435720221 1e-07 0 2 8 -9 
9 -31.74439630971685 24.81054677500003 -1e-07 -22.26443471445315 30.3360043572022 1e-07 0 2 9 -10 
10 -31.74439630971682 24.7022036506104 -1e-07 -31.5818842841553 24.81054697500005 1e-07 0 2 10 -1 
1 -31.74439630971685 -4.062694649560525 -1e-07 28.27726755605467 30.33600435720221 1e-07 0 10 1 2 3 4 5 6 7 8 9 10 
$EndEntities
$Nodes
21 897 1 897
0 1 0 1
1
-31.5818843841553 24.7022037506104 0
0 2 0 1
2
-26.48978996276858 7.421594619751001 0
0 3 0 1
3
-6.500625133514397 0.758540332317402 0
0 4 0 1
4
7.6922302246093 8.342504501342802 0
0 5 0 1
5
14.68030834198 -4.062694549560497 0
0 6 0 1
6
27.7355556488037 0.8668836951256012 0
0 7 0 1
7
28.2772674560547 23.23957633972173 0
0 8 0 1
8
-6.717305660247799 21.39775657653813 0
0 9 0 1
9
-22.26443481445315 30.3360042572022 0
0 10 0 1
10
-31.74439620971682 24.81054687500005 0
1 1 0 11
11
12
13
14
15
16
17
18
19
20
21
-31.15754318237307 23.26215298970546 0
-30.73320198059085 21.82210222880051 0
-30.30886077880862 20.38205146789557 0
-29.8845195770264 18.94200070699062 0
-29.46017837524417 17.50194994608568 0
-29.03583717346195 16.06189918518074 0
-28.61149597167972 14.62184842427579 0
-28.18715476989749 13.18179766337085 0
-27.76281356811527 11.7417469024659 0
-27.33847236633304 10.30169614156095 0
-26.91413116455081 8.861645380655998 0
1 2 0 15
22
23
24
25
26
27
28
29
30
31
32
33
34
35
36
-25.2404671609402 7.005153726786425 0
-23.99114435911181 6.588712833821823 0
-22.74182155728343 6.172271940857222 0
-21.49249875545504 5.75583104789262 0
-20.24317595362665 5.339390154928018 0
-18.99385315179827 4.922949261963415 0
-17.74453034996988 4.506508368998814 0
-16.4952075481415 4.090067476034212 0
-15.24588474631311 3.67362658306961 0
-13.99656194448473 3.257185690105008 0
-12.74723914265634 2.840744797140406 0
-11.49791634082796 2.424303904175805 0
-10.24859353899958 2.007863011211206 0
-8.999270737171202 1.591422118246606 0
-7.749947935342828 1.174981225282007 0
1 3 0 11
37
38
39
40
41
42
43
44
45
46
47
-5.31788718700412 1.390537346402851 0
-4.135149240493812 2.022534360488299 0
-2.952411293983503 2.654531374573748 0
-1.769673347473194 3.286528388659196 0
-0.586935400962882 3.918525402744646 0
0.5958025455474303 4.550522416830097 0
1.778540492057742 5.182519430915547 0
2.961278438568055 5.814516445000997 0
4.144016385078368 6.446513459086448 0
5.326754331588679 7.078510473171898 0
6.509492278098993 7.710507487257349 0
1 4 0 11
48
49
50
51
52
53
54
55
56
57
58
8.27457006772357 7.308737913767542 0
8.856909910837789 6.274971326192262 0
9.439249753952009 5.241204738616982 0
10.02158959706623 4.207438151041701 0
10.60392944018045 3.173671563466423 0
11.18626928329466 2.139904975891144 0
11.76860912640888 1.106138388315866 0
12.3509489695231 0.07237180074058713 0
12.93328881263732 -0.9613947868346902 0
13.51562865575153 -1.995161374409969 0
14.09796849886575 -3.028927961985246 0
1 5 0 11
59
60
61
62
63
64
65
66
67
68
69
15.7682456175486 -3.651896362503321 0
16.85618289311724 -3.241098175446144 0
17.94412016868588 -2.830299988388967 0
19.03205744425453 -2.419501801331791 0
20.11999471982316 -2.008703614274615 0
21.20793199539181 -1.597905427217439 0
22.29586927096045 -1.187107240160262 0
23.38380654652909 -0.7763090531030867 0
24.47174382209773 -0.3655108660459119 0
25.55968109766636 0.04528732101126298 0
26.647618373235 0.456085508068437 0
1 6 0 15
70
71
72
73
74
75
76
77
78
79
80
81
82
83
84
27.76941263675687 2.265176985412886 0
27.80326962471006 3.663470275700142 0
27.83712661266324 5.061763565987398 0
27.87098360061643 6.460056856274655 0
27.90484058856962 7.858350146561911 0
27.9386975765228 9.256643436849167 0
27.97255456447599 10.65493672713642 0
28.00641155242917 12.05323001742368 0
28.04026854038236 13.45152330771094 0
28.07412552833555 14.84981659799819 0
28.10798251628873 16.24810988828544 0
28.14183950424192 17.6464031785727 0
28.1756964921951 19.04469646885995 0
28.20955348014829 20.44298975914721 0
28.24341046810148 21.84128304943447 0
1 7 0 23
85
86
87
88
89
90
91
92
93
94
95
96
97
98
99
100
101
102
103
104
105
106
107
26.81916024287539 23.16283384958908 0
25.36105302969612 23.08609135945643 0
23.90294581651684 23.00934886932378 0
22.44483860333757 22.93260637919113 0
20.9867313901583 22.85586388905848 0
19.52862417697902 22.77912139892583 0
18.07051696379975 22.70237890879318 0
16.61240975062048 22.62563641866053 0
15.1543025374412 22.54889392852788 0
13.69619532426193 22.47215143839523 0
12.23808811108265 22.39540894826258 0
10.77998089790338 22.31866645812993 0
9.321873684724103 22.24192396799728 0
7.863766471544832 22.16518147786463 0
6.405659258365556 22.08843898773198 0
4.947552045186285 22.01169649759933 0
3.489444832007013 21.93495400746668 0
2.031337618827742 21.85821151733403 0
0.5732304056484701 21.78146902720138 0
-0.8848768075308016 21.70472653706873 0
-2.34298402071007 21.62798404693608 0
-3.801091233889334 21.55124155680343 0
-5.259198447068602 21.47449906667078 0
1 8 0 11
108
109
110
111
112
113
114
115
116
117
118
-8.012899756431604 22.14261054992681 0
-9.308493852615383 22.88746452331548 0
-10.60408794879916 23.63231849670415 0
-11.89968204498294 24.37717247009282 0
-13.19527614116672 25.1220264434815 0
-14.4908702373505 25.86688041687017 0
-15.78646433353428 26.61173439025885 0
-17.08205842971806 27.35658836364752 0
-18.37765252590183 28.10144233703619 0
-19.67324662208561 28.84629631042486 0
-20.96884071826939 29.59115028381353 0
1 9 0 7
119
120
121
122
123
124
125
-23.44942998886111 29.64532208442693 0
-24.63442516326907 28.95463991165166 0
-25.81942033767704 28.26395773887639 0
-27.004415512085 27.57327556610111 0
-28.18941068649296 26.88259339332584 0
-29.37440586090093 26.19191122055057 0
-30.55940103530889 25.5012290477753 0
1 10 0 3
126
127
128
-31.70376825332644 24.78346109390264 0
-31.66314029693606 24.75637531280523 0
-31.62251234054568 24.72928953170781 0
2 1 0 769
129
130
131
132
133
134
135
136
137
138
139
140
141
142
143
144
145
146
147
148
149
150
151
152
153
154
155
156
157
158
159
160
161
162
163
164
165
166
167
168
169
170
171
172
173
174
175
176
177
178
179
180
181
182
183
184
185
186
187
188
189
190
191
192
193
194
195
196
197
198
199
200
201
202
203
204
205
206
207
208
209
210
211
212
213
214
215
216
217
218
219
220
221
222
223
224
225
226
227
228
229
230
231
232
233
234
235
236
237
238
239
240
241
242
243
244
245
246
247
248
249
250
251
252
253
254
255
256
257
258
259
260
261
262
263
264
265
266
267
268
269
270
271
272
273
274
275
276
277
278
279
280
281
282
283
284
285
286
287
288
289
290
291
292
293
294
295
296
297
298
299
300
301
302
303
304
305
306
307
308
309
310
311
312
313
314
315
316
317
318
319
320
321
322
323
324
325
326
327
328
329
330
331
332
333
334
335
336
337
338
339
340
341
342
343
344
345
346
347
348
349
350
351
352
353
354
355
356
357
358
359
360
361
362
363
364
365
366
367
368
369
370
371
372
373
374
375
376
377
378
379
380
381
382
383
384
385
386
387
388
389
390
391
392
393
394
395
396
397
398
399
400
401
402
403
404
405
406
407
408
409
410
411
412
413
414
415
416
417
418
419
420
421
422
423
424
425
426
427
428
429
430
431
432
433
434
435
436
437
438
439
440
441
442
443
444
445
446
447
448
449
450
451
452
453
454
455
456
457
458
459
460
461
462
463
464
465
466
467
468
469
470
471
472
473
474
475
476
477
478
479
480
481
482
483
484
485
486
487
488
489
490
491
492
493
494
495
496
497
498
499
500
501
502
503
504
505
506
507
508
509
510
511
512
513
514
515
516
517
518
519
520
521
522
523
524
525
526
527
528
529
530
531
532
533
534
535
536
537
538
539
540
541
542
543
544
545
546
547
548
549
550
551
552
553
554
555
556
557
558
559
560
561
562
563
564
565
566
567
568
569
570
571
572
573
574
575
576
577
578
579
580
581
582
583
584
585
586
587
588
589
590
591
592
593
594
595
596
597
598
599
600
601
602
603
604
605
606
607
608
609
610
611
612
613
614
615
616
617
618
619
620
621
622
623
624
625
626
627
628
629
630
631
632
633
634
635
636
637
638
639
640
641
642
643
644
645
646
647
648
649
650
651
652
653
654
655
656
657
658
659
660
661
662
663
664
665
666
667
668
669
670
671
672
673
674
675
676
677
678
679
680
681
682
683
684
685
686
687
688
689
690
691
692
693
694
695
696
697
698
699
700
701
702
703
704
705
706
707
708
709
710
711
712
713
714
715
716
717
718
719
720
721
722
723
724
725
726
727
728
729
730
731
732
733
734
735
736
737
738
739
740
741
742
743
744
745
746
747
748
749
750
751
752
753
754
755
756
757
758
759
760
761
762
763
764
765
766
767
768
769
770
771
772
773
774
775
776
777
778
779
780
781
782
783
784
785
786
787
788
789
790
791
792
793
794
795
796
797
798
799
800
801
802
803
804
805
806
807
808
809
810
811
812
813
814
815
816
817
818
819
820
821
822
823
824
825
826
827
828
829
830
831
832
833
834
835
836
837
838
839
840
841
842
843
844
845
846
847
848
849
850
851
852
853
854
855
856
857
858
859
860
861
862
863
864
865
866
867
868
869
870
871
872
873
874
875
876
877
878
879
880
881
882
883
884
885
886
887
888
889
890
891
892
893
894
895
896
897
12.5271543516554 8.295611423003985 0
-16.70772976934616 9.407445814835533 0
-1.596540715931192 8.147623137317163 0
-17.07112008960797 21.37881081571701 0
19.74942927799161 1.848564275612818 0
19.17795275045269 17.22623992369823 0
10.21461211760268 12.71061629266871 0
23.08757469786223 9.266152199309461 0
5.206168080949348 12.94994720889905 0
-3.414036938053338 16.77626365937682 0
-9.052035329513631 15.46411670290183 0
-24.03087322652462 17.75845176675246 0
15.08393182041871 12.50467744102682 0
-7.556677167243116 5.919203253888746 0
17.64312865197828 8.706392545628091 0
-22.10095893342298 23.67645347914825 0
-22.70230264066809 11.6678409237204 0
-18.07724876058423 14.82699217416956 0
-5.743614440439833 11.43909697525146 0
-11.28434568381856 9.981631161146126 0
7.734070261509882 17.20721019936653 0
15.63506432312845 4.215529201226536 0
2.353975513539903 17.24313320290494 0
-26.92053032664286 22.53047705392057 0
13.06364470931205 17.46942422494053 0
24.16017047449184 3.751680928571036 0
23.54923451596067 14.3824398679871 0
19.70836448733452 12.41718039552994 0
0.09569488570871487 12.73146712433619 0
-13.44534011749765 13.94835062111249 0
16.27844635454 0.2702104647451158 0
-12.68512772850523 18.8793100672423 0
20.45846510024278 5.768779296501847 0
24.15134268058546 18.86867357546846 0
-12.89572491484699 6.17336257531854 0
-20.09856676726911 18.72108857870884 0
2.713942085861009 9.646767384388593 0
16.12079872988237 17.34783207431938 0
14.07378826486538 14.98705083298368 0
17.1309422854357 14.86545868236253 0
-4.576608941587154 7.033413195602955 0
-4.663175257358155 4.602865821273971 0
-1.683107031702193 5.71707576298818 0
-2.823959777365559 12.08528204979383 0
-1.659171026172312 14.75386539185651 0
-4.578825689246585 14.10768031731414 0
20.10394718911719 3.808671786057332 0
18.04676471168562 4.992154248864193 0
17.69224680056003 3.032046738419677 0
-15.38118824454473 16.85315112070593 0
-14.8781239090566 20.12906044147966 0
-17.5741844250961 18.10290149494329 0
17.39614815387662 12.46092891827838 0
19.44315861889361 14.82171015961409 0
-0.7504229151112385 10.43954513082668 0
-3.670077578185512 9.793360056284314 0
-10.1681905066661 12.72287393202398 0
-8.513980062129196 10.7103640681988 0
-7.397824884976732 13.45160683907665 0
-13.06523392300144 16.41383034417739 0
-15.76129443904094 14.38767139764103 0
14.83802722996626 20.04753032180053 0
17.89518125053659 19.92593817117938 0
19.05079687611053 7.237585921064969 0
16.63909648755336 6.460960873427314 0
-24.51074463003292 23.10346526653441 0
-25.47570177658374 20.14446441033652 0
-23.0659160799738 20.71745262295036 0
-11.24868772350564 14.70623366200716 0
-12.36484290065811 11.96499089112931 0
-6.650145803841474 8.679150114570104 0
-28.40252495183463 20.73623888045559 0
-29.25120735539908 23.61634040226549 0
-7.028651150378781 3.338871793103078 0
-22.06471999689686 18.23977017273065 0
-21.09976285034604 21.19877102892855 0
-20.38977570062616 13.24741654894498 0
-21.05406099355442 16.29272197046101 0
-23.36658793359635 14.71314634523643 0
-26.96247291936393 25.05187631001084 0
-29.29314994812015 26.13773965835576 0
-24.55268722275399 25.62486452262468 0
-22.18269687393807 27.00622886817523 0
-22.09740069806157 8.711835985806511 0
-24.59604630171834 9.544717771735726 0
-19.59150868157052 25.51652092139788 0
-18.58484342843854 20.04994969721293 0
-19.08790776392667 16.77404037643921 0
-15.07653494342191 11.67789821797401 0
-13.99603772658236 9.69453848799083 0
-19.70501620500713 10.53764336927797 0
-19.1001142624006 7.581638431364077 0
6.340811153348083 19.60945334848293 0
9.25702557970663 19.76293832874823 0
-25.44472870528279 12.42481929354562 0
-6.233036133783484 16.12019018113932 0
11.92181280360771 19.89404534153523 0
25.5469931251457 10.65969110836657 0
25.47927914923933 7.863104527792059 0
11.63912841345736 15.09002025880462 0
12.64927196901069 12.60764686684777 0
-19.58603951151547 22.52763214743263 0
-17.07658925966302 24.36769958968227 0
-0.5300307122567172 17.00969843114088 0
0.7345493530045508 19.47392986998683 0
-2.14945687279207 19.24049509822277 0
-17.3924892649652 12.11721899450255 0
10.39885748541096 17.33831721215353 0
8.974341189556279 14.95891324601762 0
-9.420511425530838 7.950417207517436 0
-7.884670494880748 18.43093663971998 0
-5.0656712991506 19.08701011795748 0
20.81139567689513 20.07942315144468 0
-14.48540106729545 22.87799164290492 0
23.62387258617703 6.508916563940248 0
26.01557703755413 5.105868892422846 0
-26.10901399821105 15.47012471506165 0
-26.95769640177551 18.35022623687154 0
23.29809064196152 20.9006399773298 0
26.21430506832006 21.05412495759509 0
21.56661791226035 0.5361276112548659 0
19.39074336112306 -0.2854687628594874 0
-9.527296754035536 4.171753579032275 0
0.6823688613184316 6.98106979115908 0
26.14659109241369 18.25753837702058 0
15.08514150181684 8.501001984316037 0
16.3635302361985 10.60553499332746 0
13.80554308603705 10.4001444320154 0
-16.60146865874383 6.748756645434872 0
13.99300664632577 2.143950500983561 0
12.82832696009734 4.211483676134119 0
11.27437197436081 6.251524787022842 0
10.10969228813235 8.319057962173392 0
3.650763779363094 19.62741485025214 0
14.08110933739193 6.25557031211526 0
-9.701216694376548 20.13853332189021 0
-10.86858152900943 17.17171338507206 0
15.95675533883423 2.242869832985825 0
18.0139378162658 1.059387370178968 0
5.044022887524893 17.22517170113574 0
25.94786306164774 2.309282311848325 0
-14.80172734209658 7.790404195077037 0
-12.09003529933278 8.077496868232334 0
-12.29240488674408 21.62824126866756 0
25.8455370101013 16.0144215232799 0
25.77782303419492 13.21783494270539 0
21.77301989905251 7.517465747905654 0
20.36535167492026 8.986272372468775 0
11.37088323462904 10.50311385783635 0
8.95342117110599 10.52656039700575 0
1.224835199624309 14.98730016362057 0
21.39796959259838 10.8416662974197 0
18.6757465696564 10.56178647057902 0
3.780071797244625 15.09654020590199 0
6.470119171229615 15.07857870413279 0
7.710390099276012 12.83028175078388 0
6.449199152779327 10.64622585512092 0
22.30931778736731 4.760230112536441 0
23.77198851051046 1.487685937733975 0
15.47937734825999 -1.896242042407703 0
14.31469766203155 0.1712911327428515 0
17.65525189939726 -1.074645668293337 0
21.95479987624172 2.800122602091927 0
23.31840460691145 11.82429603364828 0
5.203086155235157 8.994635942865695 0
2.837610262214532 7.730641914694795 0
-10.22620104104505 6.046282914603643 0
-12.19682062783747 4.298833239747172 0
21.6287995016476 13.39981013175852 0
21.36359363320668 15.80433989584266 0
-14.69546623149424 5.131715025676375 0
3.960055083405178 11.29835729664382 0
2.650931483329031 12.84070716661762 0
21.66464771551907 18.04745674958335 0
23.85028859827307 16.62555672172778 0
0.5587006849649088 8.897195260852877 0
1.404818485784862 11.18911725436239 0
17.64937574016753 17.28703599900881 0
16.62587050765904 16.10664537834095 0
18.1544475179442 16.04584930303038 0
15.09729349737388 16.16744145365153 0
15.60236527515054 14.9262547576731 0
14.59222171959721 17.40862814962996 0
13.56871648708871 16.2282375289621 0
14.57886004264205 13.74586413700525 0
16.10743705292721 13.68506806169467 0
-3.086574828759173 7.590518166460059 0
-3.129857986644674 6.375244479295567 0
-1.639823873816693 6.932349450152671 0
-4.619892099472654 5.818139508438463 0
-3.173141144530174 5.159970792131075 0
-6.066643054415135 6.47630822474585 0
-6.109926212300635 5.261034537581359 0
-3.216424302415675 3.944697104966583 0
-1.726390189587694 4.501802075823688 0
-4.283787108902696 11.76218951252265 0
-3.701392733306072 13.09648118355398 0
-5.161220064843209 12.7733886462828 0
-2.241565401768935 13.41957372082517 0
-3.118998357709448 14.43077285458532 0
-1.364132445828422 12.40837458706501 0
-0.7817380702317983 13.74266625809635 0
-2.536603982112825 15.76506452561666 0
-3.996431313649961 15.44197198834548 0
19.9266882335544 2.828618030835074 0
18.89809699483861 3.420359262238504 0
18.72083803927582 2.440305507016248 0
19.07535595040141 4.400413017460762 0
17.86950575612282 4.012100493641935 0
20.28120614467999 4.788725541279589 0
19.2526149059642 5.38046677268302 0
16.84091451740704 4.603841725045363 0
16.66365556184424 3.623787969823105 0
-16.72921850256448 15.84007164743775 0
-16.47768633482042 17.47802630782461 0
-17.82571659284017 16.46494683455643 0
-15.12965607680067 18.49110578109279 0
-16.22615416707635 19.11598096821147 0
-14.03315798652498 17.86623059397412 0
-13.78162581878092 19.50418525436098 0
-15.97462199933229 20.75393562859833 0
-17.32265225735203 19.74085615533015 0
16.24003998714766 12.4828031796526 0
17.26354521965616 13.66319380032045 0
18.41965338638511 13.64131953894623 0
18.28705045216466 14.84358442098831 0
18.55225632060557 12.43905465690416 0
19.57576155311406 13.61944527757201 0
19.31055568467315 16.02397504165616 0
-1.173481815521215 9.293584134071921 0
-2.210250246648376 10.1164525935555 0
-2.633309147058352 8.970491596800738 0
-1.787191346238399 11.26241359031025 0
-3.247018677775536 10.93932105303907 0
-0.3273640147012618 11.58550612758144 0
-4.706846009312673 10.61622851576789 0
-9.610112918089865 14.0934953174629 0
-8.783007695821414 13.08724038555031 0
-8.224930107245182 14.45786177098924 0
-9.341085284397646 11.71661900011139 0
-7.955902473552964 12.08098545363772 0
-10.72626809524233 11.35225254658505 0
-9.899162872973879 10.34599761467246 0
-7.128797251284515 11.07473052172513 0
-6.570719662708282 12.44535190716406 0
-13.25528702024955 15.18109048264494 0
-14.41326418102119 15.40075087090921 0
-14.6033172782693 14.16801100937676 0
-14.22321108377309 16.63349073244166 0
-15.57124134179284 15.62041125917348 0
-12.87518082575334 17.64657020570984 0
-16.91927159981259 14.60733178590529 0
15.72521849029337 21.33658337023053 0
16.36660424025143 19.98673424648996 0
17.25379550057853 21.27578729491995 0
15.47941297992432 18.69768119805996 0
17.00798999020948 18.63688512274938 0
13.95083596963915 18.75847727337053 0
18.53656700049464 18.57608904743881 0
17.34293059961949 5.726557561145754 0
16.13708040534091 5.338245037326924 0
18.54878079389808 6.114870084964581 0
17.84494668183195 6.849273397246142 0
19.75463098817666 6.503182608783408 0
18.34696276404441 7.97198923334653 0
17.14111256976582 7.583676709527703 0
-23.30585178172795 23.38995937284133 0
-23.78833035500336 21.91045894474238 0
-22.58343750669839 22.19695305104931 0
-24.99322320330833 21.62396483843546 0
-24.27080892827877 20.43095851664344 0
-25.71563747833789 22.81697116022749 0
-26.1981160516133 21.33747073212854 0
-24.75328750155418 18.95145808854449 0
-23.5483946532492 19.23795219485141 0
-10.15036152650963 15.0851751824545 0
-10.70843911508587 13.71455379701557 0
-11.80676531208187 13.33561227656823 0
-11.2665167036621 12.34393241157664 0
-12.34701392050165 14.32729214155982 0
-12.90509150907788 12.9566707561209 0
-11.82459429223833 10.97331102613772 0
-4.123343259886333 8.413386625943634 0
-5.160111691013493 9.236255085427208 0
-5.613377372714314 7.85628165508653 0
-6.196880122140653 10.05912354491078 0
-7.103411485542296 7.299176684229425 0
-29.14352226443051 19.83911979372311 0
-29.56786346621274 21.27917055462805 0
-28.82686615361686 22.17628964136054 0
-29.99220466799496 22.719221315533 0
-27.66152763923874 21.63335796718808 0
-28.08586884102097 23.07340872809303 0
-30.41654586977719 24.15927207643794 0
-4.399162248925983 3.312700090881135 0
-5.845913203868468 3.970868807188523 0
-5.581900195436297 2.680703076795687 0
-7.292664158810949 4.629037523495912 0
-6.764638141946614 2.048706062710242 0
-23.04779661171074 17.99911096974156 0
-22.56531803843533 19.47861139784051 0
-21.58224142362145 19.7192706008296 0
-22.08283946515992 20.95811182593945 0
-21.08164338208298 18.48042937571975 0
-20.59916480880757 19.9599298038187 0
-21.60036089188451 22.4376122540384 0
-21.54603917064713 12.45762873633269 0
-21.87818181711125 13.98028144709071 0
-23.03444528713222 13.19049363447842 0
-20.72191834709029 14.770069259703 0
-22.21032446357539 15.50293415784872 0
-19.2335122306052 14.03720436155727 0
-19.56565487706933 15.55985707231529 0
-22.54246711003952 17.02558686860674 0
-23.69873058006048 16.23579905599445 0
-29.27217865175962 24.87704003031062 0
-30.43751716613772 25.41997170448308 0
-28.1068401373815 24.33410835613816 0
-28.12781143374204 25.5948079841833 0
-26.9415016230034 23.79117668196571 0
-26.98344421572447 26.31257593805598 0
-28.14878273010258 26.85550761222844 0
-25.7785513674195 26.5990700443629 0
-24.59355619301153 27.28975221713817 0
-23.36769204834603 26.31554669539996 0
-23.40856101860357 27.98043438991344 0
-23.32682307808849 24.65065900088647 0
-22.14182790368053 25.34134117366174 0
-22.22356584419562 28.67111656268872 0
-21.7949497267583 7.233833516849566 0
-23.04427252858669 7.650274409814167 0
-23.34672349988995 9.128276878771118 0
-24.29359533041507 8.066715302778775 0
-22.39985166936483 10.18983845476346 0
-23.64917447119321 10.60627934772806 0
-25.54291813224346 8.483156195743389 0
-20.92797174801184 27.92626258930004 0
-20.88710277775429 26.26137489478656 0
-19.63237765182807 27.18140861591137 0
-20.84623380749675 24.59648720027307 0
-18.33678355564429 26.4365546425227 0
-17.82798175902325 20.71438025646497 0
-18.07951392676732 19.07642559607811 0
-18.83637559618261 18.41199503682607 0
-18.33104609451139 17.43847093569125 0
-19.34170509785382 19.38551913796089 0
-19.59323726559789 17.74756447757402 0
-18.58257826225545 15.80051627530439 0
-13.18044031362023 10.82976468956007 0
-12.64019170520046 9.83808482456848 0
-13.72068892204001 11.82144455455166 0
-14.53628633500213 10.68621835298242 0
-14.26093753045978 12.81312441954325 0
-15.89213235638404 10.54267201640477 0
-15.35188374796426 9.550992151413181 0
-18.20637298717664 9.972544592056749 0
-19.40256523370386 9.059640900321021 0
-17.90392201587338 8.494542123099805 0
-20.90120845153434 9.624739677542239 0
-20.59875748023109 8.146737208585293 0
-21.20365942283761 11.10274214649919 0
-20.29630650892782 6.668734739628349 0
5.644181599267184 20.81057492304113 0
7.102288812446457 20.88731741317378 0
7.798918366527356 19.68619583861558 0
8.560396025625732 20.96405990330643 0
7.037440707428983 18.40833177392473 0
8.495547920608256 18.48507426405738 0
10.018503238805 21.04080239343908 0
-25.96725933402569 9.923206956648336 0
-25.02038750350057 10.98476853264068 0
-26.39160053580792 11.36325771755329 0
-24.07351567297544 12.04633010863301 0
-26.81594173759014 12.80330847845823 0
-6.815430509380108 14.78589851010799 0
-7.642535731648557 15.79215344202058 0
-5.988325287111659 13.77964357819539 0
-5.405930911515035 15.11393524922673 0
-4.823536535918411 16.44822692025807 0
11.35089685075554 21.10635589983258 0
12.80900406393482 21.18309838996523 0
13.37992001678699 19.97078783166788 0
14.2671112771141 21.25984088009788 0
12.49272875645988 18.68173478323788 0
26.77670233878744 11.35646056289513 0
26.74284535083425 9.95816727260787 0
25.51313613719252 9.261397818079315 0
26.70898836288107 8.559873982320614 0
24.31728391150397 9.962921653838016 0
24.28342692355078 8.56462836355076 0
26.67513137492788 7.161580692033358 0
13.36153011693804 13.79734884991572 0
13.86660189471471 12.55616215393729 0
12.85645833916137 15.03853554589415 0
12.14420019123403 13.84883356282619 0
12.3513865613847 16.27972224187258 0
10.92687026553002 13.90031827573667 0
11.43194204330669 12.65913157975824 0
-18.33404897061677 24.94211025554008 0
-17.07932384469054 25.86214397666489 0
-19.588774096543 24.02207653441526 0
-18.33131438558924 23.44766586855745 0
-20.84349922246923 23.10204281329044 0
-18.32857980056172 21.95322148157482 0
-17.07385467463549 22.87325520269964 0
-1.972033825155028 16.89298104525885 0
-1.339743792524393 18.12509676468182 0
-2.781746905422704 18.00837937879979 0
0.1022593203739168 18.24181415056385 0
-0.7074537598937594 19.3572124841048 0
0.911972400641593 17.12641581702291 0
1.544262433272227 18.35853153644589 0
-0.07516372726312537 20.58932820352778 0
-1.517166840161436 20.47261081764575 0
-20.07098437874055 16.53338117345011 0
-20.57631388041177 17.50690527458493 0
-21.55939049522564 17.26624607159583 0
-16.23451210419355 11.89755860623828 0
-17.05010951715568 10.76233240466904 0
-15.41891469123142 13.03278480780752 0
-16.57689185200307 13.25244519607179 0
-17.73486901277472 13.47210558433606 0
10.30673480150682 15.02446675241112 0
9.594476653579477 13.83476476934317 0
11.01899294943416 16.21416873547908 0
9.686599337483621 16.14861522908557 0
11.7312510973615 17.40387071854703 0
9.066463873460423 17.27276370576003 0
8.354205725533081 16.08306172269208 0
-7.582062932985336 9.694757091384449 0
-8.967245743830016 9.330390637858116 0
-8.035328614686156 8.314783661043769 0
-10.3524285546747 8.966024184331781 0
-8.488594296386978 6.934810230703091 0
-7.300988077564305 19.91434660812906 0
-6.475170897015674 18.75897337883873 0
-5.891488479699232 20.2423833472478 0
-7.058853314332116 17.27556341042965 0
-5.649353716467042 17.6036001495484 0
-8.46835291219719 16.94752667131091 0
-4.239854118601969 17.93163688866714 0
18.71190271375781 21.35252978505261 0
19.35328846371586 20.00268066131203 0
20.17000992693708 21.42927227518526 0
19.99467421367391 18.65283153757145 0
21.62811714011635 21.50601476531791 0
-15.78372974850676 25.11729000327622 0
-15.78099516347924 23.6228456162936 0
-14.48813565232298 24.37243602988755 0
-15.77826057845171 22.12840122931097 0
-13.1925415561392 23.62758205649887 0
-4.433381266519968 20.31912583738045 0
-3.607564085971335 19.16375260809012 0
-2.975274053340702 20.3958683275131 0
-18.54875273498616 11.32743118189026 0
-18.89113248279568 12.68231777172377 0
-20.04739595281664 11.89252995911147 0
23.35572364201963 7.887534381624855 0
24.55157586770818 7.186010545866154 0
24.81972481186558 5.807392728181547 0
25.74742809339673 6.484486710107452 0
23.89202153033443 5.130298746255642 0
25.08787375602298 4.428774910496941 0
26.94328031908528 5.782962874348751 0
-25.77687135174692 13.94747200430364 0
-27.14808438405427 14.32596118921625 0
-24.40565831943957 13.56898281939103 0
-24.7378009659037 15.09163553014904 0
-25.06994361236784 16.61428824090706 0
-27.5724255858365 15.76601195012119 0
-26.53335519999328 16.9101754759666 0
-27.99676678761872 17.20606271102614 0
-25.49428481415006 18.054339001812 0
-28.42110798940095 18.64611347193108 0
9.827941532558796 18.55062777045088 0
11.16033514450934 18.61618127684438 0
10.58941919165717 19.82849183514173 0
22.87146462264954 21.91662317826047 0
24.32957183582882 21.99336566839311 0
24.75619785514079 20.97738246746244 0
25.78767904900809 22.07010815852576 0
23.72471666127349 19.88465677639913 0
25.18282387445276 19.96139926653178 0
27.24578626218736 22.14685064865841 0
22.47521222939472 -0.1200907209241109 0
21.38727495382608 -0.5308889079812857 0
20.47868063669171 0.1253294241976892 0
20.29933767825744 -0.9416870950384642 0
20.65802359512598 1.192345943433843 0
19.57008631955733 0.7815477563766642 0
19.2114004026888 -1.352485282095639 0
-8.013960943774991 2.465146955674841 0
-8.277973952207159 3.755312686067676 0
-9.263283745603369 2.881587848639441 0
-8.541986960639326 5.045478416460512 0
-10.51260654743175 3.298028741604039 0
1.821823649943243 6.397793118080038 0
0.6390857034329309 5.765796103994589 0
-0.5003690851918807 6.34907277707363 0
-0.5436522430773814 5.133799089909138 0
-0.4570859273063803 7.564346464238122 0
27.21192927423417 20.74855735837115 0
26.18044808036687 19.65583166730784 0
27.17807228628099 19.3502640680839 0
25.14896688649957 18.56310597624452 0
27.1442152983278 17.95197077779664 0
13.80614792673612 8.398306703660012 0
14.44534229392695 9.450573208165721 0
13.16634871884623 9.347877927509694 0
15.72433586900767 9.553268488821747 0
15.08453666111778 10.50283971267143 0
16.36413507689756 8.603697264972064 0
17.00332944408839 9.655963769477774 0
15.72373102830861 11.55510621717714 0
14.44473745322788 11.45241093652111 0
-16.54833810344266 5.41941206073454 0
-17.79766090527105 5.835852953699144 0
-17.85079146057222 7.165197538399474 0
-19.04698370709944 6.252293846663746 0
-16.654599214045 8.078101230135204 0
13.17197780792444 1.108161150862074 0
12.58963796481022 2.141927738437353 0
13.41066680321156 3.17771708855884 0
12.007298121696 3.175694326012632 0
14.81403548472711 3.179739851105047 0
14.23169564161289 4.213506438680326 0
11.42495827858178 4.209460913587909 0
10.64798078571352 5.229481469032271 0
10.0656409425993 6.263248056607551 0
10.69203213124658 7.285291374598117 0
9.48330109948507 7.297014644182827 0
11.9007631630081 7.273568105013414 0
11.31842331989387 8.30733469258869 0
8.900961256370827 8.330781231758095 0
1.382943485916146 20.66607069366043 0
2.192656566183822 19.55067236011948 0
2.841050699095418 20.74281318379308 0
3.002369646451498 18.43527402657854 0
4.29915791227469 20.81955567392573 0
13.30413184452366 7.275590867559623 0
14.58312541960438 7.378286148215649 0
15.36010291247264 6.358265592771287 0
15.8621189946851 7.480981428871676 0
14.85808683026019 5.235549756670899 0
-8.209261177312206 20.76814494921418 0
-8.792943594628648 19.2847349808051 0
-10.28489911169299 18.65512335348114 0
-9.376626011945088 17.80132501239602 0
-11.19317221144089 19.50892169456625 0
-11.77685462875733 18.02551172615718 0
-9.960308429261531 16.31791504398695 0
15.79590983098134 3.229199517106181 0
16.82450106969713 2.637458285702751 0
16.98534657755001 1.651128601582396 0
17.85309230841291 2.045717054299322 0
16.11760084668711 1.25654014886547 0
17.1461920854029 0.6647989174620417 0
18.8816835471287 1.453975822895892 0
4.995787466355589 19.61843409936753 0
4.347393333443994 18.42629327569394 0
5.692417020436488 18.41731252480933 0
3.698999200532398 17.23415245202034 0
6.389046574517387 17.21619095025113 0
26.9094233311321 4.384669584061495 0
25.98172004960093 3.707575602135584 0
26.8755663431789 2.986376293774233 0
25.05401676806979 3.030481620209681 0
26.84170935522569 1.588083003486968 0
12.05134946722908 5.23150423157848 0
13.45471814874463 5.23352699412469 0
12.67774065587637 6.253547549569051 0
-15.75472855572137 8.598925004956286 0
-14.39888253433947 8.742471341533934 0
-13.44588132071468 7.933950531654686 0
-13.04303651295757 8.886017678111582 0
-13.84872612847178 6.981883385197788 0
-12.49288010708988 7.125429721775437 0
-11.68719049157567 9.02956401468923 0
-26.21669908917962 19.24734532360403 0
-26.93911336420918 20.44035164539606 0
-27.68011067680507 19.54323255866357 0
-20.34290118093076 21.86320158818059 0
-19.84230313939229 20.62436036307074 0
-19.08544146997701 21.28879092232278 0
-12.09604346586351 23.00270686938019 0
-10.80044936967973 22.25785289599152 0
-10.99681079056032 20.88338729527889 0
-9.504855273495966 21.51299892260285 0
-12.48876630762466 20.25377566795493 0
26.99368825717161 16.8304123509263 0
26.95983126921842 15.43211906063904 0
25.81168002214811 14.61612823299264 0
26.92597428126523 14.03382577035179 0
24.69738576303099 15.1984306956335 0
24.6635287750778 13.80013740534624 0
26.89211729331205 12.63553248006454 0
19.70807427551539 8.111929146766872 0
19.00424016344927 8.846332459048433 0
20.41190838758152 7.377525834485311 0
21.06918578698638 8.251869060187214 0
21.11574249964765 6.64312252220375 0
22.43029729845737 8.391808973607558 0
21.72646318639124 9.126212285889119 0
11.94901879314222 9.399362640420165 0
10.74028776138069 9.41108591000487 0
10.16215220286751 10.51483712742105 0
9.531556729619171 9.422809179589574 0
10.79274767611586 11.60686507525253 0
9.584016644354334 11.61858834483723 0
8.322825697857649 9.434532449174277 0
-1.094600869214514 15.88178191149869 0
-0.2171679132740012 14.87058277773854 0
0.347402243683796 15.99849929738072 0
0.6602650426665121 13.85938364397838 0
1.789405356582106 16.11521668326275 0
22.2427721452303 10.05390924836458 0
20.88166063375932 9.913969334944239 0
20.03685808112738 10.70172638399936 0
19.52054912228833 9.774029421523895 0
20.55316703996645 11.62942334647482 0
19.19205552849546 11.48948343305448 0
18.15943761081733 9.634089508103553 0
5.757071029377254 16.15187520263426 0
7.102094716369749 16.14289445174966 0
4.412047342384759 16.16085595351886 0
5.12509548423712 15.08755945501739 0
3.067023655392264 16.16983670440347 0
4.493119939096987 14.02324370740052 0
5.838143626089481 14.01426295651592 0
12.58821316033305 10.45162914492587 0
13.22740752752387 11.50389564943158 0
12.01007760181987 11.55538036234206 0
-25.75758007105896 25.33837041631776 0
-25.73660877469842 24.07767078827263 0
-24.53171592639345 24.36416489457955 0
8.962501108439344 12.77044902172629 0
8.331905635191001 11.67842107389482 0
7.079794626027669 11.7382538029524 0
7.701310161942659 10.58639312606334 0
6.458279090112679 12.89011447984146 0
5.827683616864338 11.79808653200999 0
7.070714688694316 9.494365178231861 0
22.69844624261477 7.013191155922952 0
22.04116884320991 6.138847930221047 0
22.96659518677217 5.634573338238344 0
21.38389144380505 5.264504704519144 0
23.23474413092957 4.255955520553737 0
25.75377207965705 1.177284816429793 0
24.8599257860791 1.89848412479115 0
24.66583480408841 0.7664866293726185 0
23.96607949250115 2.619683433152506 0
23.57789752851978 0.3556884423154436 0
15.07984284511998 -2.979468295984113 0
14.49750300200576 -1.945701708408837 0
14.89703750514577 -0.8624754548324258 0
13.91516315889154 -0.911935120833558 0
15.87891185139999 -0.8130157888312937 0
15.29657200828578 0.2207507987439836 0
13.33282331577733 0.1218314667417193 0
18.3436546718259 -1.747073734812563 0
17.25571739625725 -2.157871921869742 0
16.56731462382863 -1.485443855350521 0
16.16778012068861 -2.568670108926923 0
16.96684912696863 -0.4022176017741117 0
22.6693032113854 1.01190677449442 0
22.86339419337609 2.143904269912952 0
21.76070889425104 1.668125106673397 0
23.05748517536678 3.275901765331481 0
20.85211457711667 2.324343438852372 0
25.66240807967031 11.93876302553598 0
24.54811382055319 12.52106548817684 0
24.43269886602858 11.24199357100743 0
23.43381956143606 13.10336795081769 0
23.20298965238684 10.54522411647887 0
8.342365644416144 13.89459749840075 0
7.722230180392947 15.01874597507521 0
7.090254635252814 13.95443022745833 0
6.447658189922231 8.668570222104247 0
5.264920243411918 8.036573208018797 0
4.020348208724845 8.362638928780246 0
4.082182296901606 7.404576193933346 0
3.958514120548083 9.320701663627144 0
2.77577617403777 8.688704649541693 0
2.899444350391294 6.772579179847896 0
-10.75527336243181 8.013957037874885 0
-11.15811817018891 7.061889891417989 0
-9.823356233287946 6.99835006106054 0
-11.56096297794602 6.109822744961091 0
-8.891439104144084 5.982743084246195 0
-9.876748897540294 5.109018246817959 0
-11.21151083444126 5.172558077175408 0
-10.8620586909365 4.235293409389723 0
-12.54627277134223 5.236097907532855 0
-11.84736848433272 3.361568571961488 0
20.40337612605014 15.31302502772838 0
20.27077319182969 16.51528990977045 0
20.5359790602706 14.1107601456863 0
21.49619656742714 14.60207501380059 0
20.66858199449106 12.90849526364423 0
22.58901700880413 13.89112499987281 0
22.45641407458368 15.09338988191488 0
-15.59533688981787 4.610891250855293 0
-15.64846744511904 5.940235835555623 0
-14.74859678679541 6.461059610376706 0
-15.7015980004202 7.269580420255954 0
-13.79559557317062 5.652538800497457 0
4.583111582177263 12.12415225277143 0
5.204627118092253 10.97229157588237 0
4.581570619320168 10.14649661975476 0
5.826142654007242 9.820430898993308 0
3.336998584633094 10.47256234051621 0
-11.05863462625754 15.93897352353961 0
-11.96690772600543 16.79277186462473 0
-12.15696082325354 15.56003200309228 0
-14.68176248817603 21.50352604219229 0
-13.58526439790034 20.87865085507361 0
-13.38890297701977 22.25311645578624 0
17.51963840292745 10.58366073195324 0
18.03594736176651 11.5113576944287 0
16.87983919503755 11.53323195580292 0
2.502453498434467 15.04192018476128 0
1.93788334147667 13.91400366511909 0
3.215501640286828 13.96862368625981 0
1.373313184518873 12.78608714547691 0
3.928549782139189 12.89532718775833 0
14.15385215417866 1.157620816863206 0
15.13572650043289 1.207080482864338 0
14.97488099258 2.193410166984693 0
18.70234058869443 0.3869593036597401 0
17.83459485783153 -0.007629149057184037 0
18.52299763026016 -0.6800572155764115 0
20.42130023298589 17.63684833664079 0
21.2380216962071 19.06343995051401 0
22.48136917874029 19.47404836345657 0
22.05474315942832 20.49003156438724 0
22.90799519805227 18.45806516252591 0
22.47360205427952 12.6120530827034 0
21.51338454712299 12.12073821458911 0
22.35818709975491 11.33298116553399 0
25.99606405125749 17.13597995015024 0
24.99843984534338 17.44154754937418 0
24.84791280418718 16.31998912250384 0
24.00081563942926 17.74711514859812 0
23.69976155711687 15.50399829485744 0
1.759989561766482 7.355855852926938 0
1.69815547358972 8.313918587773836 0
0.6205347731416702 7.939132526005979 0
1.636321385412959 9.271981322620734 0
-0.5189200154831415 8.52240919908502 0
-13.0966912861611 3.77800946492609 0
-13.44614342966586 4.715274132711773 0
-14.34601408798948 4.194450357890691 0
22.13205883180451 3.780176357314183 0
21.20663248824225 4.284450949296886 0
21.02937353267946 3.304397194074628 0
22.60694111573988 16.21494830878522 0
22.75746815689607 17.33650673565556 0
21.51412067436288 16.92589832271301 0
-0.09586111507316486 9.668370195839778 0
0.9817595853748854 10.04315625760763 0
0.3271977853368118 10.81433119259454 0
2.059380285822936 10.41794231937549 0
0.7502566857467885 11.96029218934929 0
2.027874984556946 12.01491221049001 0
2.68243678459502 11.24373727550311 0
3.305493283367105 12.06953223163072 0
-30.51877307891849 25.4741432666779 0
-30.4781451225281 25.44705748558049 0
-29.33377790451054 26.16482543945316 0
$EndNodes
$Elements
21 1802 1 1802
0 1 15 1
1 1 
0 2 15 1
2 2 
0 3 15 1
3 3 
0 4 15 1
4 4 
0 5 15 1
5 5 
0 6 15 1
6 6 
0 7 15 1
7 7 
0 8 15 1
8 8 
0 9 15 1
9 9 
0 10 15 1
10 10 
1 1 1 12
11 1 11 
12 11 12 
13 12 13 
14 13 14 
15 14 15 
16 15 16 
17 16 17 
18 17 18 
19 18 19 
20 19 20 
21 20 21 
22 21 2 
1 2 1 16
23 2 22 
24 22 23 
25 23 24 
26 24 25 
27 25 26 
28 26 27 
29 27 28 
30 28 29 
31 29 30 
32 30 31 
33 31 32 
34 32 33 
35 33 34 
36 34 35 
37 35 36 
38 36 3 
1 3 1 12
39 3 37 
40 37 38 
41 38 39 
42 39 40 
43 40 41 
44 41 42 
45 42 43 
46 43 44 
47 44 45 
48 45 46 
49 46 47 
50 47 4 
1 4 1 12
51 4 48 
52 48 49 
53 49 50 
54 50 51 
55 51 52 
56 52 53 
57 53 54 
58 54 55 
59 55 56 
60 56 57 
61 57 58 
62 58 5 
1 5 1 12
63 5 59 
64 59 60 
65 60 61 
66 61 62 
67 62 63 
68 63 64 
69 64 65 
70 65 66 
71 66 67 
72 67 68 
73 68 69 
74 69 6 
1 6 1 16
75 6 70 
76 70 71 
77 71 72 
78 72 73 
79 73 74 
80 74 75 
81 75 76 
82 76 77 
83 77 78 
84 78 79 
85 79 80 
86 80 81 
87 81 82 
88 82 83 
89 83 84 
90 84 7 
1 7 1 24
91 7 85 
92 85 86 
93 86 87 
94 87 88 
95 88 89 
96 89 90 
97 90 91 
98 91 92 
99 92 93 
100 93 94 
101 94 95 
102 95 96 
103 96 97 
104 97 98 
105 98 99 
106 99 100 
107 100 101 
108 101 102 
109 102 103 
110 103 104 
111 104 105 
112 105 106 
113 106 107 
114 107 8 
1 8 1 12
115 8 108 
116 108 109 
117 109 110 
118 110 111 
119 111 112 
120 112 113 
121 113 114 
122 114 115 
123 115 116 
124 116 117 
125 117 118 
126 118 9 
1 9 1 8
127 9 119 
128 119 120 
129 120 121 
130 121 122 
131 122 123 
132 123 124 
133 124 125 
134 125 10 
1 10 1 4
135 10 126 
136 126 127 
137 127 128 
138 128 1 
2 1 2 1664
139 134 306 308 
140 306 307 308 
141 306 166 307 
142 308 307 168 
143 166 309 307 
144 309 310 307 
145 309 167 310 
146 307 310 168 
147 166 311 309 
148 311 312 309 
149 311 153 312 
150 309 312 167 
151 168 310 314 
152 310 313 314 
153 310 167 313 
154 314 313 141 
155 131 315 317 
156 315 316 317 
157 315 169 316 
158 317 316 171 
159 169 318 316 
160 318 319 316 
161 318 170 319 
162 316 319 171 
163 169 320 318 
164 320 321 318 
165 320 142 321 
166 318 321 170 
167 171 319 323 
168 319 322 323 
169 319 170 322 
170 323 322 40 
171 147 324 326 
172 324 325 326 
173 324 172 325 
174 326 325 174 
175 172 327 325 
176 327 328 325 
177 327 173 328 
178 325 328 174 
179 172 329 327 
180 329 330 327 
181 329 157 330 
182 327 330 173 
183 174 328 332 
184 328 331 332 
185 328 173 331 
186 332 331 138 
187 133 333 335 
188 333 334 335 
189 333 175 334 
190 335 334 177 
191 175 336 334 
192 336 337 334 
193 336 176 337 
194 334 337 177 
195 175 338 336 
196 338 339 336 
197 338 161 339 
198 336 339 176 
199 177 337 341 
200 337 340 341 
201 337 176 340 
202 341 340 150 
203 146 342 344 
204 342 343 344 
205 342 178 343 
206 344 343 180 
207 178 345 343 
208 345 346 343 
209 345 179 346 
210 343 346 180 
211 178 347 345 
212 347 348 345 
213 347 160 348 
214 345 348 179 
215 180 346 350 
216 346 349 350 
217 346 179 349 
218 350 349 132 
219 141 351 314 
220 351 352 314 
221 351 181 352 
222 314 352 168 
223 181 353 352 
224 353 354 352 
225 353 182 354 
226 352 354 168 
227 181 355 353 
228 355 356 353 
229 355 156 356 
230 353 356 182 
231 168 354 308 
232 354 357 308 
233 354 182 357 
234 308 357 134 
235 131 358 360 
236 358 359 360 
237 358 183 359 
238 360 359 184 
239 183 361 359 
240 361 362 359 
241 361 172 362 
242 359 362 184 
243 183 363 361 
244 363 329 361 
245 363 157 329 
246 361 329 172 
247 184 362 364 
248 362 324 364 
249 362 172 324 
250 364 324 147 
251 139 365 367 
252 365 366 367 
253 365 185 366 
254 367 366 187 
255 185 368 366 
256 368 369 366 
257 368 186 369 
258 366 369 187 
259 185 370 368 
260 370 371 368 
261 370 148 371 
262 368 371 186 
263 187 369 373 
264 369 372 373 
265 369 186 372 
266 373 372 147 
267 158 374 376 
268 374 375 376 
269 374 188 375 
270 376 375 189 
271 188 377 375 
272 377 378 375 
273 377 178 378 
274 375 378 189 
275 188 379 377 
276 379 347 377 
277 379 160 347 
278 377 347 178 
279 189 378 380 
280 378 342 380 
281 378 178 342 
282 380 342 146 
283 92 381 383 
284 381 382 383 
285 381 190 382 
286 383 382 191 
287 190 384 382 
288 384 385 382 
289 384 166 385 
290 382 385 191 
291 190 386 384 
292 386 311 384 
293 386 153 311 
294 384 311 166 
295 191 385 387 
296 385 306 387 
297 385 166 306 
298 387 306 134 
299 150 340 389 
300 340 388 389 
301 340 176 388 
302 389 388 193 
303 176 390 388 
304 390 391 388 
305 390 192 391 
306 388 391 193 
307 176 339 390 
308 339 392 390 
309 339 161 392 
310 390 392 192 
311 193 391 394 
312 391 393 394 
313 391 192 393 
314 394 393 143 
315 144 395 397 
316 395 396 397 
317 395 194 396 
318 397 396 196 
319 194 398 396 
320 398 399 396 
321 398 195 399 
322 396 399 196 
323 194 400 398 
324 400 401 398 
325 400 152 401 
326 398 401 195 
327 196 399 403 
328 399 402 403 
329 399 195 402 
330 403 402 140 
331 139 404 365 
332 404 405 365 
333 404 197 405 
334 365 405 185 
335 197 406 405 
336 406 407 405 
337 406 198 407 
338 405 407 185 
339 197 408 406 
340 408 409 406 
341 408 158 409 
342 406 409 198 
343 185 407 370 
344 407 410 370 
345 407 198 410 
346 370 410 148 
347 131 360 315 
348 360 411 315 
349 360 184 411 
350 315 411 169 
351 184 412 411 
352 412 413 411 
353 412 199 413 
354 411 413 169 
355 184 364 412 
356 364 414 412 
357 364 147 414 
358 412 414 199 
359 169 413 320 
360 413 415 320 
361 413 199 415 
362 320 415 142 
363 14 416 13 
364 416 417 13 
365 416 200 417 
366 13 417 12 
367 200 418 417 
368 418 419 417 
369 418 201 419 
370 417 419 12 
371 200 420 418 
372 420 421 418 
373 420 152 421 
374 418 421 201 
375 12 419 11 
376 419 422 11 
377 419 201 422 
378 11 422 1 
379 40 322 39 
380 322 423 39 
381 322 170 423 
382 39 423 38 
383 170 424 423 
384 424 425 423 
385 424 202 425 
386 423 425 38 
387 170 321 424 
388 321 426 424 
389 321 142 426 
390 424 426 202 
391 38 425 37 
392 425 427 37 
393 425 202 427 
394 37 427 3 
395 140 428 403 
396 428 429 403 
397 428 203 429 
398 403 429 196 
399 203 430 429 
400 430 431 429 
401 430 204 431 
402 429 431 196 
403 203 432 430 
404 432 433 430 
405 432 164 433 
406 430 433 204 
407 196 431 397 
408 431 434 397 
409 431 204 434 
410 397 434 144 
411 145 435 437 
412 435 436 437 
413 435 205 436 
414 437 436 207 
415 205 438 436 
416 438 439 436 
417 438 206 439 
418 436 439 207 
419 205 440 438 
420 440 441 438 
421 440 146 441 
422 438 441 206 
423 207 439 443 
424 439 442 443 
425 439 206 442 
426 443 442 140 
427 1 422 445 
428 422 444 445 
429 422 201 444 
430 445 444 209 
431 201 446 444 
432 446 447 444 
433 446 208 447 
434 444 447 209 
435 201 421 446 
436 421 448 446 
437 421 152 448 
438 446 448 208 
439 209 447 450 
440 447 449 450 
441 447 208 449 
442 450 449 122 
443 122 451 121 
444 451 452 121 
445 451 210 452 
446 121 452 120 
447 210 453 452 
448 453 454 452 
449 453 211 454 
450 452 454 120 
451 210 455 453 
452 455 456 453 
453 455 144 456 
454 453 456 211 
455 120 454 119 
456 454 457 119 
457 454 211 457 
458 119 457 9 
459 25 458 24 
460 458 459 24 
461 458 212 459 
462 24 459 23 
463 212 460 459 
464 460 461 459 
465 460 213 461 
466 459 461 23 
467 212 462 460 
468 462 463 460 
469 462 145 463 
470 460 463 213 
471 23 461 22 
472 461 464 22 
473 461 213 464 
474 22 464 2 
475 9 457 118 
476 457 465 118 
477 457 211 465 
478 118 465 117 
479 211 466 465 
480 466 467 465 
481 466 214 467 
482 465 467 117 
483 211 456 466 
484 456 468 466 
485 456 144 468 
486 466 468 214 
487 117 467 116 
488 467 469 116 
489 467 214 469 
490 116 469 115 
491 132 470 350 
492 470 471 350 
493 470 215 471 
494 350 471 180 
495 215 472 471 
496 472 473 471 
497 472 216 473 
498 471 473 180 
499 215 474 472 
500 474 475 472 
501 474 164 475 
502 472 475 216 
503 180 473 344 
504 473 476 344 
505 473 216 476 
506 344 476 146 
507 148 410 478 
508 410 477 478 
509 410 198 477 
510 478 477 218 
511 198 479 477 
512 479 480 477 
513 479 217 480 
514 477 480 218 
515 198 409 479 
516 409 481 479 
517 409 158 481 
518 479 481 217 
519 218 480 483 
520 480 482 483 
521 480 217 482 
522 483 482 130 
523 130 484 486 
524 484 485 486 
525 484 219 485 
526 486 485 220 
527 219 487 485 
528 487 488 485 
529 487 212 488 
530 485 488 220 
531 219 489 487 
532 489 462 487 
533 489 145 462 
534 487 462 212 
535 220 488 490 
536 488 458 490 
537 488 212 458 
538 490 458 25 
539 100 491 99 
540 491 492 99 
541 491 221 492 
542 99 492 98 
543 221 493 492 
544 493 494 492 
545 493 222 494 
546 492 494 98 
547 221 495 493 
548 495 496 493 
549 495 149 496 
550 493 496 222 
551 98 494 97 
552 494 497 97 
553 494 222 497 
554 97 497 96 
555 2 464 21 
556 464 498 21 
557 464 213 498 
558 21 498 20 
559 213 499 498 
560 499 500 498 
561 499 223 500 
562 498 500 20 
563 213 463 499 
564 463 501 499 
565 463 145 501 
566 499 501 223 
567 20 500 19 
568 500 502 19 
569 500 223 502 
570 19 502 18 
571 139 367 504 
572 367 503 504 
573 367 187 503 
574 504 503 224 
575 187 505 503 
576 505 506 503 
577 505 174 506 
578 503 506 224 
579 187 373 505 
580 373 326 505 
581 373 147 326 
582 505 326 174 
583 224 506 507 
584 506 332 507 
585 506 174 332 
586 507 332 138 
587 96 508 95 
588 508 509 95 
589 508 225 509 
590 95 509 94 
591 225 510 509 
592 510 511 509 
593 510 190 511 
594 509 511 94 
595 225 512 510 
596 512 386 510 
597 512 153 386 
598 510 386 190 
599 94 511 93 
600 511 381 93 
601 511 190 381 
602 93 381 92 
603 77 513 76 
604 513 514 76 
605 513 226 514 
606 76 514 75 
607 226 515 514 
608 515 516 514 
609 515 227 516 
610 514 516 75 
611 226 517 515 
612 517 518 515 
613 517 136 518 
614 515 518 227 
615 75 516 74 
616 516 519 74 
617 516 227 519 
618 74 519 73 
619 141 313 521 
620 313 520 521 
621 313 167 520 
622 521 520 229 
623 167 522 520 
624 522 523 520 
625 522 228 523 
626 520 523 229 
627 167 312 522 
628 312 524 522 
629 312 153 524 
630 522 524 228 
631 229 523 526 
632 523 525 526 
633 523 228 525 
634 526 525 135 
635 115 469 528 
636 469 527 528 
637 469 214 527 
638 528 527 231 
639 214 529 527 
640 529 530 527 
641 529 230 530 
642 527 530 231 
643 214 468 529 
644 468 531 529 
645 468 144 531 
646 529 531 230 
647 231 530 533 
648 530 532 533 
649 530 230 532 
650 533 532 132 
651 138 534 536 
652 534 535 536 
653 534 232 535 
654 536 535 234 
655 232 537 535 
656 537 538 535 
657 537 233 538 
658 535 538 234 
659 232 539 537 
660 539 540 537 
661 539 151 540 
662 537 540 233 
663 234 538 542 
664 538 541 542 
665 538 233 541 
666 542 541 104 
667 146 476 441 
668 476 543 441 
669 476 216 543 
670 441 543 206 
671 216 544 543 
672 544 545 543 
673 544 203 545 
674 543 545 206 
675 216 475 544 
676 475 432 544 
677 475 164 432 
678 544 432 203 
679 206 545 442 
680 545 428 442 
681 545 203 428 
682 442 428 140 
683 130 482 547 
684 482 546 547 
685 482 217 546 
686 547 546 235 
687 217 548 546 
688 548 549 546 
689 548 189 549 
690 546 549 235 
691 217 481 548 
692 481 376 548 
693 481 158 376 
694 548 376 189 
695 235 549 550 
696 549 380 550 
697 549 189 380 
698 550 380 146 
699 135 525 552 
700 525 551 552 
701 525 228 551 
702 552 551 237 
703 228 553 551 
704 553 554 551 
705 553 236 554 
706 551 554 237 
707 228 524 553 
708 524 555 553 
709 524 153 555 
710 553 555 236 
711 237 554 557 
712 554 556 557 
713 554 236 556 
714 557 556 149 
715 147 372 414 
716 372 558 414 
717 372 186 558 
718 414 558 199 
719 186 559 558 
720 559 560 558 
721 559 238 560 
722 558 560 199 
723 186 371 559 
724 371 561 559 
725 371 148 561 
726 559 561 238 
727 199 560 415 
728 560 562 415 
729 560 238 562 
730 415 562 142 
731 8 563 565 
732 563 564 565 
733 563 239 564 
734 565 564 240 
735 239 566 564 
736 566 567 564 
737 566 224 567 
738 564 567 240 
739 239 568 566 
740 568 504 566 
741 568 139 504 
742 566 504 224 
743 240 567 569 
744 567 507 569 
745 567 224 507 
746 569 507 138 
747 92 383 91 
748 383 570 91 
749 383 191 570 
750 91 570 90 
751 191 571 570 
752 571 572 570 
753 571 241 572 
754 570 572 90 
755 191 387 571 
756 387 573 571 
757 387 134 573 
758 571 573 241 
759 90 572 89 
760 572 574 89 
761 572 241 574 
762 89 574 88 
763 115 528 114 
764 528 575 114 
765 528 231 575 
766 114 575 113 
767 231 576 575 
768 576 577 575 
769 576 242 577 
770 575 577 113 
771 231 533 576 
772 533 578 576 
773 533 132 578 
774 576 578 242 
775 113 577 112 
776 577 579 112 
777 577 242 579 
778 112 579 111 
779 8 565 107 
780 565 580 107 
781 565 240 580 
782 107 580 106 
783 240 581 580 
784 581 582 580 
785 581 234 582 
786 580 582 106 
787 240 569 581 
788 569 536 581 
789 569 138 536 
790 581 536 234 
791 106 582 105 
792 582 542 105 
793 582 234 542 
794 105 542 104 
795 130 547 484 
796 547 583 484 
797 547 235 583 
798 484 583 219 
799 235 584 583 
800 584 585 583 
801 584 205 585 
802 583 585 219 
803 235 550 584 
804 550 440 584 
805 550 146 440 
806 584 440 205 
807 219 585 489 
808 585 435 489 
809 585 205 435 
810 489 435 145 
811 136 586 518 
812 586 587 518 
813 586 243 587 
814 518 587 227 
815 243 588 587 
816 588 589 587 
817 588 244 589 
818 587 589 227 
819 243 590 588 
820 590 591 588 
821 590 154 591 
822 588 591 244 
823 227 589 519 
824 589 592 519 
825 589 244 592 
826 519 592 73 
827 18 502 594 
828 502 593 594 
829 502 223 593 
830 594 593 245 
831 223 595 593 
832 595 596 593 
833 595 207 596 
834 593 596 245 
835 223 501 595 
836 501 437 595 
837 501 145 437 
838 595 437 207 
839 245 596 597 
840 596 443 597 
841 596 207 443 
842 597 443 140 
843 18 594 17 
844 594 598 17 
845 594 245 598 
846 17 598 16 
847 245 599 598 
848 599 600 598 
849 599 246 600 
850 598 600 16 
851 245 597 599 
852 597 601 599 
853 597 140 601 
854 599 601 246 
855 16 600 15 
856 600 602 15 
857 600 246 602 
858 15 602 14 
859 149 556 496 
860 556 603 496 
861 556 236 603 
862 496 603 222 
863 236 604 603 
864 604 605 603 
865 604 225 605 
866 603 605 222 
867 236 555 604 
868 555 512 604 
869 555 153 512 
870 604 512 225 
871 222 605 497 
872 605 508 497 
873 605 225 508 
874 497 508 96 
875 88 606 87 
876 606 607 87 
877 606 247 607 
878 87 607 86 
879 247 608 607 
880 608 609 607 
881 608 248 609 
882 607 609 86 
883 247 610 608 
884 610 611 608 
885 610 162 611 
886 608 611 248 
887 86 609 85 
888 609 612 85 
889 609 248 612 
890 85 612 7 
891 66 613 65 
892 613 614 65 
893 613 249 614 
894 65 614 64 
895 249 615 614 
896 615 616 614 
897 615 250 616 
898 614 616 64 
899 249 617 615 
900 617 618 615 
901 617 133 618 
902 615 618 250 
903 64 616 63 
904 616 619 63 
905 616 250 619 
906 63 619 62 
907 3 427 36 
908 427 620 36 
909 427 202 620 
910 36 620 35 
911 202 621 620 
912 621 622 620 
913 621 251 622 
914 620 622 35 
915 202 426 621 
916 426 623 621 
917 426 142 623 
918 621 623 251 
919 35 622 34 
920 622 624 34 
921 622 251 624 
922 34 624 33 
923 44 625 43 
924 625 626 43 
925 625 252 626 
926 43 626 42 
927 252 627 626 
928 627 628 626 
929 627 171 628 
930 626 628 42 
931 252 629 627 
932 629 317 627 
933 629 131 317 
934 627 317 171 
935 42 628 41 
936 628 323 41 
937 628 171 323 
938 41 323 40 
939 7 612 84 
940 612 630 84 
941 612 248 630 
942 84 630 83 
943 248 631 630 
944 631 632 630 
945 631 253 632 
946 630 632 83 
947 248 611 631 
948 611 633 631 
949 611 162 633 
950 631 633 253 
951 83 632 82 
952 632 634 82 
953 632 253 634 
954 82 634 81 
955 129 635 637 
956 635 636 637 
957 635 254 636 
958 637 636 256 
959 254 638 636 
960 638 639 636 
961 638 255 639 
962 636 639 256 
963 254 640 638 
964 640 641 638 
965 640 143 641 
966 638 641 255 
967 256 639 643 
968 639 642 643 
969 639 255 642 
970 643 642 141 
971 29 644 28 
972 644 645 28 
973 644 257 645 
974 28 645 27 
975 257 646 645 
976 646 647 645 
977 646 220 647 
978 645 647 27 
979 257 648 646 
980 648 486 646 
981 648 130 486 
982 646 486 220 
983 27 647 26 
984 647 490 26 
985 647 220 490 
986 26 490 25 
987 55 649 54 
988 649 650 54 
989 649 258 650 
990 54 650 53 
991 258 651 650 
992 651 652 650 
993 651 259 652 
994 650 652 53 
995 258 653 651 
996 653 654 651 
997 653 150 654 
998 651 654 259 
999 53 652 52 
1000 652 655 52 
1001 652 259 655 
1002 52 655 51 
1003 51 656 50 
1004 656 657 50 
1005 656 260 657 
1006 50 657 49 
1007 260 658 657 
1008 658 659 657 
1009 658 261 659 
1010 657 659 49 
1011 260 660 658 
1012 660 661 658 
1013 660 129 661 
1014 658 661 261 
1015 49 659 48 
1016 659 662 48 
1017 659 261 662 
1018 48 662 4 
1019 104 541 103 
1020 541 663 103 
1021 541 233 663 
1022 103 663 102 
1023 233 664 663 
1024 664 665 663 
1025 664 262 665 
1026 663 665 102 
1027 233 540 664 
1028 540 666 664 
1029 540 151 666 
1030 664 666 262 
1031 102 665 101 
1032 665 667 101 
1033 665 262 667 
1034 101 667 100 
1035 129 668 635 
1036 668 669 635 
1037 668 263 669 
1038 635 669 254 
1039 263 670 669 
1040 670 671 669 
1041 670 193 671 
1042 669 671 254 
1043 263 672 670 
1044 672 389 670 
1045 672 150 389 
1046 670 389 193 
1047 254 671 640 
1048 671 394 640 
1049 671 193 394 
1050 640 394 143 
1051 8 673 563 
1052 673 674 563 
1053 673 264 674 
1054 563 674 239 
1055 264 675 674 
1056 675 676 674 
1057 675 265 676 
1058 674 676 239 
1059 264 677 675 
1060 677 678 675 
1061 677 160 678 
1062 675 678 265 
1063 239 676 568 
1064 676 679 568 
1065 676 265 679 
1066 568 679 139 
1067 150 680 341 
1068 680 681 341 
1069 680 266 681 
1070 341 681 177 
1071 266 682 681 
1072 682 683 681 
1073 682 267 683 
1074 681 683 177 
1075 266 684 682 
1076 684 685 682 
1077 684 159 685 
1078 682 685 267 
1079 177 683 335 
1080 683 686 335 
1081 683 267 686 
1082 335 686 133 
1083 100 667 491 
1084 667 687 491 
1085 667 262 687 
1086 491 687 221 
1087 262 688 687 
1088 688 689 687 
1089 688 268 689 
1090 687 689 221 
1091 262 666 688 
1092 666 690 688 
1093 666 151 690 
1094 688 690 268 
1095 221 689 495 
1096 689 691 495 
1097 689 268 691 
1098 495 691 149 
1099 73 592 72 
1100 592 692 72 
1101 592 244 692 
1102 72 692 71 
1103 244 693 692 
1104 693 694 692 
1105 693 269 694 
1106 692 694 71 
1107 244 591 693 
1108 591 695 693 
1109 591 154 695 
1110 693 695 269 
1111 71 694 70 
1112 694 696 70 
1113 694 269 696 
1114 70 696 6 
1115 51 655 656 
1116 655 697 656 
1117 655 259 697 
1118 656 697 260 
1119 259 698 697 
1120 698 699 697 
1121 698 263 699 
1122 697 699 260 
1123 259 654 698 
1124 654 672 698 
1125 654 150 672 
1126 698 672 263 
1127 260 699 660 
1128 699 668 660 
1129 699 263 668 
1130 660 668 129 
1131 130 700 483 
1132 700 701 483 
1133 700 270 701 
1134 483 701 218 
1135 270 702 701 
1136 702 703 701 
1137 702 271 703 
1138 701 703 218 
1139 270 704 702 
1140 704 705 702 
1141 704 163 705 
1142 702 705 271 
1143 218 703 478 
1144 703 706 478 
1145 703 271 706 
1146 478 706 148 
1147 140 402 601 
1148 402 707 601 
1149 402 195 707 
1150 601 707 246 
1151 195 708 707 
1152 708 709 707 
1153 708 200 709 
1154 707 709 246 
1155 195 401 708 
1156 401 420 708 
1157 401 152 420 
1158 708 420 200 
1159 246 709 602 
1160 709 416 602 
1161 709 200 416 
1162 602 416 14 
1163 144 434 531 
1164 434 710 531 
1165 434 204 710 
1166 531 710 230 
1167 204 711 710 
1168 711 712 710 
1169 711 215 712 
1170 710 712 230 
1171 204 433 711 
1172 433 474 711 
1173 433 164 474 
1174 711 474 215 
1175 230 712 532 
1176 712 470 532 
1177 712 215 470 
1178 532 470 132 
1179 111 713 110 
1180 713 714 110 
1181 713 272 714 
1182 110 714 109 
1183 272 715 714 
1184 715 716 714 
1185 715 264 716 
1186 714 716 109 
1187 272 717 715 
1188 717 677 715 
1189 717 160 677 
1190 715 677 264 
1191 109 716 108 
1192 716 673 108 
1193 716 264 673 
1194 108 673 8 
1195 81 718 80 
1196 718 719 80 
1197 718 273 719 
1198 80 719 79 
1199 273 720 719 
1200 720 721 719 
1201 720 274 721 
1202 719 721 79 
1203 273 722 720 
1204 722 723 720 
1205 722 155 723 
1206 720 723 274 
1207 79 721 78 
1208 721 724 78 
1209 721 274 724 
1210 78 724 77 
1211 143 393 726 
1212 393 725 726 
1213 393 192 725 
1214 726 725 276 
1215 192 727 725 
1216 727 728 725 
1217 727 275 728 
1218 725 728 276 
1219 192 392 727 
1220 392 729 727 
1221 392 161 729 
1222 727 729 275 
1223 276 728 731 
1224 728 730 731 
1225 728 275 730 
1226 731 730 136 
1227 129 732 661 
1228 732 733 661 
1229 732 277 733 
1230 661 733 261 
1231 277 734 733 
1232 734 735 733 
1233 734 278 735 
1234 733 735 261 
1235 277 736 734 
1236 736 737 734 
1237 736 135 737 
1238 734 737 278 
1239 261 735 662 
1240 735 738 662 
1241 735 278 738 
1242 662 738 4 
1243 138 331 534 
1244 331 739 534 
1245 331 173 739 
1246 534 739 232 
1247 173 740 739 
1248 740 741 739 
1249 740 279 741 
1250 739 741 232 
1251 173 330 740 
1252 330 742 740 
1253 330 157 742 
1254 740 742 279 
1255 232 741 539 
1256 741 743 539 
1257 741 279 743 
1258 539 743 151 
1259 136 744 731 
1260 744 745 731 
1261 744 280 745 
1262 731 745 276 
1263 280 746 745 
1264 746 747 745 
1265 746 281 747 
1266 745 747 276 
1267 280 748 746 
1268 748 749 746 
1269 748 156 749 
1270 746 749 281 
1271 276 747 726 
1272 747 750 726 
1273 747 281 750 
1274 726 750 143 
1275 149 691 752 
1276 691 751 752 
1277 691 268 751 
1278 752 751 283 
1279 268 753 751 
1280 753 754 751 
1281 753 282 754 
1282 751 754 283 
1283 268 690 753 
1284 690 755 753 
1285 690 151 755 
1286 753 755 282 
1287 283 754 757 
1288 754 756 757 
1289 754 282 756 
1290 757 756 137 
1291 129 637 732 
1292 637 758 732 
1293 637 256 758 
1294 732 758 277 
1295 256 759 758 
1296 759 760 758 
1297 759 229 760 
1298 758 760 277 
1299 256 643 759 
1300 643 521 759 
1301 643 141 521 
1302 759 521 229 
1303 277 760 736 
1304 760 526 736 
1305 760 229 526 
1306 736 526 135 
1307 122 449 451 
1308 449 761 451 
1309 449 208 761 
1310 451 761 210 
1311 208 762 761 
1312 762 763 761 
1313 762 194 763 
1314 761 763 210 
1315 208 448 762 
1316 448 400 762 
1317 448 152 400 
1318 762 400 194 
1319 210 763 455 
1320 763 395 455 
1321 763 194 395 
1322 455 395 144 
1323 135 764 737 
1324 764 765 737 
1325 764 284 765 
1326 737 765 278 
1327 284 766 765 
1328 766 767 765 
1329 766 285 767 
1330 765 767 278 
1331 284 768 766 
1332 768 769 766 
1333 768 137 769 
1334 766 769 285 
1335 278 767 738 
1336 767 770 738 
1337 767 285 770 
1338 738 770 4 
1339 136 730 586 
1340 730 771 586 
1341 730 275 771 
1342 586 771 243 
1343 275 772 771 
1344 772 773 771 
1345 772 286 773 
1346 771 773 243 
1347 275 729 772 
1348 729 774 772 
1349 729 161 774 
1350 772 774 286 
1351 243 773 590 
1352 773 775 590 
1353 773 286 775 
1354 590 775 154 
1355 6 696 69 
1356 696 776 69 
1357 696 269 776 
1358 69 776 68 
1359 269 777 776 
1360 777 778 776 
1361 777 287 778 
1362 776 778 68 
1363 269 695 777 
1364 695 779 777 
1365 695 154 779 
1366 777 779 287 
1367 68 778 67 
1368 778 780 67 
1369 778 287 780 
1370 67 780 66 
1371 5 781 58 
1372 781 782 58 
1373 781 288 782 
1374 58 782 57 
1375 288 783 782 
1376 783 784 782 
1377 783 289 784 
1378 782 784 57 
1379 288 785 783 
1380 785 786 783 
1381 785 159 786 
1382 783 786 289 
1383 57 784 56 
1384 784 787 56 
1385 784 289 787 
1386 56 787 55 
1387 62 788 61 
1388 788 789 61 
1389 788 290 789 
1390 61 789 60 
1391 290 790 789 
1392 790 791 789 
1393 790 288 791 
1394 789 791 60 
1395 290 792 790 
1396 792 785 790 
1397 792 159 785 
1398 790 785 288 
1399 60 791 59 
1400 791 781 59 
1401 791 288 781 
1402 59 781 5 
1403 66 780 613 
1404 780 793 613 
1405 780 287 793 
1406 613 793 249 
1407 287 794 793 
1408 794 795 793 
1409 794 291 795 
1410 793 795 249 
1411 287 779 794 
1412 779 796 794 
1413 779 154 796 
1414 794 796 291 
1415 249 795 617 
1416 795 797 617 
1417 795 291 797 
1418 617 797 133 
1419 77 724 513 
1420 724 798 513 
1421 724 274 798 
1422 513 798 226 
1423 274 799 798 
1424 799 800 798 
1425 799 292 800 
1426 798 800 226 
1427 274 723 799 
1428 723 801 799 
1429 723 155 801 
1430 799 801 292 
1431 226 800 517 
1432 800 802 517 
1433 800 292 802 
1434 517 802 136 
1435 135 552 764 
1436 552 803 764 
1437 552 237 803 
1438 764 803 284 
1439 237 804 803 
1440 804 805 803 
1441 804 283 805 
1442 803 805 284 
1443 237 557 804 
1444 557 752 804 
1445 557 149 752 
1446 804 752 283 
1447 284 805 768 
1448 805 757 768 
1449 805 283 757 
1450 768 757 137 
1451 4 806 47 
1452 806 807 47 
1453 806 293 807 
1454 47 807 46 
1455 293 808 807 
1456 808 809 807 
1457 808 294 809 
1458 807 809 46 
1459 293 810 808 
1460 810 811 808 
1461 810 165 811 
1462 808 811 294 
1463 46 809 45 
1464 809 812 45 
1465 809 294 812 
1466 45 812 44 
1467 148 706 561 
1468 706 813 561 
1469 706 271 813 
1470 561 813 238 
1471 271 814 813 
1472 814 815 813 
1473 814 295 815 
1474 813 815 238 
1475 271 705 814 
1476 705 816 814 
1477 705 163 816 
1478 814 816 295 
1479 238 815 562 
1480 815 817 562 
1481 815 295 817 
1482 562 817 142 
1483 142 817 623 
1484 817 818 623 
1485 817 295 818 
1486 623 818 251 
1487 295 819 818 
1488 819 820 818 
1489 819 296 820 
1490 818 820 251 
1491 295 816 819 
1492 816 821 819 
1493 816 163 821 
1494 819 821 296 
1495 251 820 624 
1496 820 822 624 
1497 820 296 822 
1498 624 822 33 
1499 134 357 824 
1500 357 823 824 
1501 357 182 823 
1502 824 823 298 
1503 182 825 823 
1504 825 826 823 
1505 825 297 826 
1506 823 826 298 
1507 182 356 825 
1508 356 827 825 
1509 356 156 827 
1510 825 827 297 
1511 298 826 829 
1512 826 828 829 
1513 826 297 828 
1514 829 828 155 
1515 29 830 644 
1516 830 831 644 
1517 830 299 831 
1518 644 831 257 
1519 299 832 831 
1520 832 833 831 
1521 832 270 833 
1522 831 833 257 
1523 299 834 832 
1524 834 704 832 
1525 834 163 704 
1526 832 704 270 
1527 257 833 648 
1528 833 700 648 
1529 833 270 700 
1530 648 700 130 
1531 137 835 769 
1532 835 836 769 
1533 835 300 836 
1534 769 836 285 
1535 300 837 836 
1536 837 838 836 
1537 837 293 838 
1538 836 838 285 
1539 300 839 837 
1540 839 810 837 
1541 839 165 810 
1542 837 810 293 
1543 285 838 770 
1544 838 806 770 
1545 838 293 806 
1546 770 806 4 
1547 139 679 404 
1548 679 840 404 
1549 679 265 840 
1550 404 840 197 
1551 265 841 840 
1552 841 842 840 
1553 841 188 842 
1554 840 842 197 
1555 265 678 841 
1556 678 379 841 
1557 678 160 379 
1558 841 379 188 
1559 197 842 408 
1560 842 374 408 
1561 842 188 374 
1562 408 374 158 
1563 132 349 578 
1564 349 843 578 
1565 349 179 843 
1566 578 843 242 
1567 179 844 843 
1568 844 845 843 
1569 844 272 845 
1570 843 845 242 
1571 179 348 844 
1572 348 717 844 
1573 348 160 717 
1574 844 717 272 
1575 242 845 579 
1576 845 713 579 
1577 845 272 713 
1578 579 713 111 
1579 143 750 641 
1580 750 846 641 
1581 750 281 846 
1582 641 846 255 
1583 281 847 846 
1584 847 848 846 
1585 847 181 848 
1586 846 848 255 
1587 281 749 847 
1588 749 355 847 
1589 749 156 355 
1590 847 355 181 
1591 255 848 642 
1592 848 351 642 
1593 848 181 351 
1594 642 351 141 
1595 151 743 755 
1596 743 849 755 
1597 743 279 849 
1598 755 849 282 
1599 279 850 849 
1600 850 851 849 
1601 850 301 851 
1602 849 851 282 
1603 279 742 850 
1604 742 852 850 
1605 742 157 852 
1606 850 852 301 
1607 282 851 756 
1608 851 853 756 
1609 851 301 853 
1610 756 853 137 
1611 55 787 649 
1612 787 854 649 
1613 787 289 854 
1614 649 854 258 
1615 289 855 854 
1616 855 856 854 
1617 855 266 856 
1618 854 856 258 
1619 289 786 855 
1620 786 684 855 
1621 786 159 684 
1622 855 684 266 
1623 258 856 653 
1624 856 680 653 
1625 856 266 680 
1626 653 680 150 
1627 133 686 618 
1628 686 857 618 
1629 686 267 857 
1630 618 857 250 
1631 267 858 857 
1632 858 859 857 
1633 858 290 859 
1634 857 859 250 
1635 267 685 858 
1636 685 792 858 
1637 685 159 792 
1638 858 792 290 
1639 250 859 619 
1640 859 788 619 
1641 859 290 788 
1642 619 788 62 
1643 134 860 573 
1644 860 861 573 
1645 860 302 861 
1646 573 861 241 
1647 302 862 861 
1648 862 863 861 
1649 862 247 863 
1650 861 863 241 
1651 302 864 862 
1652 864 610 862 
1653 864 162 610 
1654 862 610 247 
1655 241 863 574 
1656 863 606 574 
1657 863 247 606 
1658 574 606 88 
1659 155 828 801 
1660 828 865 801 
1661 828 297 865 
1662 801 865 292 
1663 297 866 865 
1664 866 867 865 
1665 866 280 867 
1666 865 867 292 
1667 297 827 866 
1668 827 748 866 
1669 827 156 748 
1670 866 748 280 
1671 292 867 802 
1672 867 744 802 
1673 867 280 744 
1674 802 744 136 
1675 81 634 718 
1676 634 868 718 
1677 634 253 868 
1678 718 868 273 
1679 253 869 868 
1680 869 870 868 
1681 869 303 870 
1682 868 870 273 
1683 253 633 869 
1684 633 871 869 
1685 633 162 871 
1686 869 871 303 
1687 273 870 722 
1688 870 872 722 
1689 870 303 872 
1690 722 872 155 
1691 44 812 625 
1692 812 873 625 
1693 812 294 873 
1694 625 873 252 
1695 294 874 873 
1696 874 875 873 
1697 874 304 875 
1698 873 875 252 
1699 294 811 874 
1700 811 876 874 
1701 811 165 876 
1702 874 876 304 
1703 252 875 629 
1704 875 877 629 
1705 875 304 877 
1706 629 877 131 
1707 33 822 32 
1708 822 878 32 
1709 822 296 878 
1710 32 878 31 
1711 296 879 878 
1712 879 880 878 
1713 879 299 880 
1714 878 880 31 
1715 296 821 879 
1716 821 834 879 
1717 821 163 834 
1718 879 834 299 
1719 31 880 30 
1720 880 830 30 
1721 880 299 830 
1722 30 830 29 
1723 154 775 796 
1724 775 881 796 
1725 775 286 881 
1726 796 881 291 
1727 286 882 881 
1728 882 883 881 
1729 882 175 883 
1730 881 883 291 
1731 286 774 882 
1732 774 338 882 
1733 774 161 338 
1734 882 338 175 
1735 291 883 797 
1736 883 333 797 
1737 883 175 333 
1738 797 333 133 
1739 155 872 829 
1740 872 884 829 
1741 872 303 884 
1742 829 884 298 
1743 303 885 884 
1744 885 886 884 
1745 885 302 886 
1746 884 886 298 
1747 303 871 885 
1748 871 864 885 
1749 871 162 864 
1750 885 864 302 
1751 298 886 824 
1752 886 860 824 
1753 886 302 860 
1754 824 860 134 
1755 131 877 358 
1756 877 887 358 
1757 877 304 887 
1758 358 887 183 
1759 304 888 887 
1760 888 889 887 
1761 888 305 889 
1762 887 889 183 
1763 304 876 888 
1764 876 890 888 
1765 876 165 890 
1766 888 890 305 
1767 183 889 363 
1768 889 891 363 
1769 889 305 891 
1770 363 891 157 
1771 157 891 852 
1772 891 892 852 
1773 891 305 892 
1774 852 892 301 
1775 305 893 892 
1776 893 894 892 
1777 893 300 894 
1778 892 894 301 
1779 305 890 893 
1780 890 839 893 
1781 890 165 839 
1782 893 839 300 
1783 301 894 853 
1784 894 835 853 
1785 894 300 835 
1786 853 835 137 
1787 10 126 125 
1788 126 895 125 
1789 126 127 895 
1790 125 895 124 
1791 127 896 895 
1792 896 897 895 
1793 896 209 897 
1794 895 897 124 
1795 127 128 896 
1796 128 445 896 
1797 128 1 445 
1798 896 445 209 
1799 124 897 123 
1800 897 450 123 
1801 897 209 450 
1802 123 450 122 
$EndElements
